<svg width="262" height="65" viewBox="0 0 262 65" fill="none" xmlns="http://www.w3.org/2000/svg">
<rect x="0.5" y="0.5" width="64" height="64" rx="14.4906" fill="#0093ED"/>
<path fill-rule="evenodd" clip-rule="evenodd" d="M18.6132 48.3825C18.6132 49.7599 19.7298 50.8766 21.1072 50.8766H23.3644C24.7418 50.8766 25.8584 49.7599 25.8584 48.3825V40.8005C25.8584 39.4231 26.9751 38.3064 28.3525 38.3064H35.523C36.1743 38.3064 36.8057 38.2669 37.4154 38.19C39.223 37.9618 41.1596 39.2196 41.1596 41.0415V48.3825C41.1596 49.7599 42.2762 50.8766 43.6537 50.8766H45.0503C46.4278 50.8766 47.5444 49.7599 47.5444 48.3825V27.5615C47.5775 27.1604 47.5943 26.7513 47.5943 26.3349C47.5943 20.0296 43.3922 15.1062 37.057 14.4859C36.5595 14.4378 36.0479 14.4132 35.523 14.4132H21.1072C19.7298 14.4132 18.6132 15.5299 18.6132 16.9073V48.3825ZM25.8584 22.5938C25.8584 21.2163 26.9751 20.0997 28.3525 20.0997H34.2759C38.5159 20.0997 40.9102 22.2945 40.9102 26.285C40.9102 30.2755 38.5657 32.62 34.1762 32.62H28.3525C26.9751 32.62 25.8584 31.5033 25.8584 30.1259V22.5938Z" fill="white"/>
<path d="M94.86 47.5H89.74V18.26H94.86V30.34H107.82V18.26H112.94V47.5H107.82V35.1H94.86V47.5ZM124.588 48.02C120.388 48.02 117.828 45.58 117.828 41.86C117.828 38.22 120.468 35.94 125.148 35.58L131.068 35.14V34.7C131.068 32.02 129.468 30.94 126.988 30.94C124.108 30.94 122.508 32.14 122.508 34.22H118.348C118.348 29.94 121.868 27.14 127.228 27.14C132.548 27.14 135.828 30.02 135.828 35.5V47.5H131.548L131.188 44.58C130.348 46.62 127.668 48.02 124.588 48.02ZM126.188 44.34C129.188 44.34 131.108 42.54 131.108 39.5V38.46L126.988 38.78C123.948 39.06 122.788 40.06 122.788 41.66C122.788 43.46 123.988 44.34 126.188 44.34ZM145.142 47.5H140.622V17.74H145.502V30.62C146.782 28.42 149.422 27.1 152.422 27.1C158.062 27.1 161.502 31.5 161.502 37.74C161.502 43.82 157.782 48.02 152.102 48.02C149.142 48.02 146.622 46.7 145.462 44.42L145.142 47.5ZM145.542 37.54C145.542 41.1 147.742 43.54 151.102 43.54C154.542 43.54 156.582 41.06 156.582 37.54C156.582 34.02 154.542 31.5 151.102 31.5C147.742 31.5 145.542 33.98 145.542 37.54ZM167.827 23.78C166.147 23.78 164.827 22.46 164.827 20.82C164.827 19.18 166.147 17.9 167.827 17.9C169.427 17.9 170.747 19.18 170.747 20.82C170.747 22.46 169.427 23.78 167.827 23.78ZM165.387 47.5V27.74H170.267V47.5H165.387ZM182.029 47.5H177.149V31.82H173.349V27.74H177.149V21.58H182.029V27.74H185.869V31.82H182.029V47.5ZM199.684 56.66V27.74H204.204L204.524 30.74C205.724 28.46 208.324 27.14 211.324 27.14C216.884 27.14 220.564 31.18 220.564 37.38C220.564 43.54 217.204 48.02 211.324 48.02C208.364 48.02 205.804 46.86 204.564 44.86V56.66H199.684ZM204.604 37.62C204.604 41.18 206.804 43.62 210.164 43.62C213.604 43.62 215.644 41.14 215.644 37.62C215.644 34.1 213.604 31.58 210.164 31.58C206.804 31.58 204.604 34.06 204.604 37.62ZM236.85 27.66V32.18H235.05C231.53 32.18 229.33 34.06 229.33 37.9V47.5H224.45V27.78H229.05L229.33 30.66C230.17 28.7 232.05 27.38 234.69 27.38C235.37 27.38 236.05 27.46 236.85 27.66ZM238.329 37.58C238.329 31.42 242.769 27.18 248.889 27.18C255.009 27.18 259.449 31.42 259.449 37.58C259.449 43.74 255.009 47.98 248.889 47.98C242.769 47.98 238.329 43.74 238.329 37.58ZM243.209 37.58C243.209 41.18 245.529 43.62 248.889 43.62C252.249 43.62 254.569 41.18 254.569 37.58C254.569 33.98 252.249 31.54 248.889 31.54C245.529 31.54 243.209 33.98 243.209 37.58Z" fill="white"/>
</svg>
