<svg id="Capa_1" enable-background="new 0 0 445.336 445.336" height="512" viewBox="0 0 445.336 445.336" width="512" xmlns="http://www.w3.org/2000/svg"><g><path d="m202.009 383.296c95.665-19.253 177.721-101.31 196.975-196.975 2.59-12.868-5.45-25.512-18.12-28.941l-258.929-70.078c-11.511-3.115-22.061 7.434-18.945 18.945l70.079 258.929c3.428 12.67 16.072 20.71 28.94 18.12z" fill="#f7be56"/><path d="m202.034 383.297c95.633-19.264 177.688-101.321 196.947-196.955 2.592-12.869-5.45-25.516-18.123-28.944l-21.777-5.891c-20.422 92.471-99.391 171.44-191.862 191.924l5.868 21.732c3.424 12.678 16.074 20.727 28.947 18.134z" fill="#fcd462"/><path d="m206.77 237.349c-.18-.082-.377-.18-.574-.246-.197-.065-.541-.049-.492.164zm0 0c-.18-.082-.377-.18-.574-.246-.197-.065-.541-.049-.492.164zm7.971 10.431c6.429-6.429 6.413-16.844 0-23.257-6.429-6.429-16.828-6.429-23.257 0-6.413 6.413-6.413 16.811.016 23.241 6.413 6.413 16.828 6.429 23.241.016zm-19.042-20.912c.049-.279.262-.492.443-.705.836-.869 1.755-1.788 2.936-2.05.476-.115.968-.115 1.443-.098 1.804 0 3.592.016 5.396.016.968.017 2.05.049 2.739.738.18.18.312.443.213.672-.049.148-.213.246-.344.344-1.148.754-1.919 1.985-2.69 3.149-.984 1.509-2.05 2.969-3.329 4.215l.59-.689c-.361.164-.525.754-.902.672-.115-.049-.197-.131-.279-.213-.722-.722-1.427-1.46-2.165-2.198-.426-.426-.869-.869-1.361-1.23-.787-.558-1.771-.886-2.378-1.657-.23-.26-.394-.621-.312-.966zm7.873 9.185c-.066-.394.164-.787.459-1.05.279-.279.656-.459.984-.656 1.263-.771 2.28-1.952 2.805-3.33.213-.508.344-1.033.623-1.509.558-.918 1.575-1.443 2.542-1.853.262-.098.492-.197.754-.164.344.049.623.295.869.541.328.328.689.656.968 1.033.722 1.017 1.001 2.247 1.247 3.477.098.426.18.869.279 1.296.23 1.115.459 2.23.41 3.362-.033 1.115-.394 2.263-1.197 3.067-.804.804-2.083 1.132-3.1.64-.689-.361-1.148-1.017-1.673-1.575-.787-.853-1.722-1.525-2.772-1.985-.476.082-.951.197-1.427.312-.115.016-.23.033-.345.017-.098-.033-.164-.098-.23-.164-.164-.164-.344-.312-.508-.476-.311-.278-.639-.573-.688-.983zm2.001 4.396c.607 1.165 1.05 2.067 2.034 2.985.738.705 2.067 1.574 1.771 2.788-.246 1.033-1.525 1.328-2.575 1.46-.771.082-1.509.164-2.28.246-.508.049-1.033.115-1.574.131-.64.016-1.263-.016-1.919-.049-1.247-.065-2.559-.164-3.641-.82-.82-.525-1.443-1.673-.853-2.427.558-.754 1.706-.558 2.575-.869.574-.213 1.033-.64 1.476-1.083 1.23-1.231 3.559-5.167 4.986-2.362zm-13.893-.41c-.787-1.673.328-3.772.492-4.002.148-.246.246-.541.295-.82.279-1.001.525-2.001.787-2.985.131-.525.295-1.082.722-1.41.705-.509 1.673-.099 2.411.344 1.739 1.05 3.313 2.329 4.707 3.789l-.837-.705c.492.426.968.869 1.279 1.443.279.574.361 1.312 0 1.837-.197.295-.492.492-.787.689-.394.262-.787.525-1.23.672-.705.181-1.64.131-1.935.787-.099.23-.099.459-.18.672-.082.213-.246.377-.41.541l-2.247 2.247c-.098.098-.197.197-.328.23-.18.082-.394 0-.574-.082-1.164-.607-1.59-2.05-2.165-3.247zm14.024-2.772 1.066.082c-.18-.082-.377-.18-.574-.246s-.541-.05-.492.164zm1.066.082c-.18-.082-.377-.18-.574-.246-.197-.065-.541-.049-.492.164zm0 0c-.18-.082-.377-.18-.574-.246-.197-.065-.541-.049-.492.164z" fill="#d15241"/><path d="m192.316 156.411c-.18-.082-.377-.18-.574-.246-.197-.065-.541-.049-.492.164zm0 0c-.18-.082-.377-.18-.574-.246-.197-.065-.541-.049-.492.164zm7.972 10.431c6.429-6.429 6.413-16.844 0-23.257-6.429-6.429-16.828-6.429-23.257 0-6.413 6.413-6.413 16.811.016 23.241 6.413 6.413 16.827 6.429 23.241.016zm-19.042-20.911c.049-.279.262-.492.443-.705.836-.869 1.755-1.788 2.936-2.05.476-.115.968-.115 1.443-.098 1.804 0 3.592.016 5.396.016.968.017 2.05.049 2.739.738.18.18.312.443.213.672-.049.148-.213.246-.344.344-1.148.754-1.919 1.985-2.69 3.149-.984 1.509-2.05 2.969-3.329 4.215l.59-.689c-.361.164-.525.754-.902.672-.115-.049-.197-.131-.279-.213-.722-.722-1.427-1.46-2.165-2.198-.426-.426-.869-.869-1.361-1.23-.787-.558-1.771-.886-2.378-1.657-.231-.261-.395-.622-.312-.966zm7.872 9.184c-.066-.394.164-.787.459-1.05.279-.279.656-.459.984-.656 1.263-.771 2.28-1.952 2.805-3.33.213-.508.344-1.033.623-1.509.558-.918 1.575-1.443 2.542-1.853.262-.098.492-.197.754-.164.344.049.623.295.869.541.328.328.689.656.968 1.033.722 1.017 1.001 2.247 1.247 3.477.098.426.18.869.279 1.296.23 1.115.459 2.23.41 3.362-.033 1.115-.394 2.263-1.197 3.067-.804.804-2.083 1.132-3.1.64-.689-.361-1.148-1.017-1.673-1.575-.787-.853-1.722-1.525-2.772-1.985-.476.082-.951.197-1.427.312-.115.016-.23.033-.345.017-.098-.033-.164-.098-.23-.164-.164-.164-.344-.312-.508-.476-.311-.277-.639-.573-.688-.983zm2.001 4.396c.607 1.165 1.05 2.067 2.034 2.985.738.705 2.067 1.574 1.771 2.788-.246 1.033-1.525 1.328-2.575 1.46-.771.082-1.509.164-2.28.246-.508.049-1.033.115-1.574.131-.64.017-1.263-.016-1.919-.049-1.247-.065-2.559-.164-3.641-.82-.82-.525-1.443-1.673-.853-2.427.558-.755 1.706-.558 2.575-.869.574-.213 1.033-.64 1.476-1.083 1.23-1.23 3.559-5.167 4.986-2.362zm-13.892-.41c-.787-1.673.328-3.772.492-4.002.148-.246.246-.541.295-.82.279-1.001.525-2.001.787-2.985.131-.525.295-1.082.722-1.41.705-.509 1.673-.098 2.411.344 1.739 1.05 3.313 2.329 4.707 3.789l-.837-.705c.492.426.968.869 1.279 1.443.279.574.361 1.312 0 1.837-.197.295-.492.492-.787.689-.394.262-.787.525-1.23.672-.705.18-1.64.131-1.935.787-.099.23-.098.459-.18.672s-.246.377-.41.541l-2.247 2.247c-.098.098-.197.197-.328.23-.18.082-.394 0-.574-.082-1.165-.606-1.591-2.05-2.165-3.247zm14.023-2.772 1.066.082c-.18-.082-.377-.18-.574-.246-.197-.065-.541-.049-.492.164zm1.066.082c-.18-.082-.377-.18-.574-.246-.197-.065-.541-.049-.492.164zm0 0c-.18-.082-.377-.18-.574-.246-.197-.065-.541-.049-.492.164z" fill="#d15241"/><path d="m284.095 208.091c-.18-.082-.377-.18-.574-.246-.197-.065-.541-.049-.492.164zm0 0c-.18-.082-.377-.18-.574-.246-.197-.065-.541-.049-.492.164zm7.971 10.431c6.429-6.429 6.413-16.844 0-23.257-6.429-6.429-16.828-6.429-23.257 0-6.413 6.413-6.413 16.811.016 23.241 6.414 6.413 16.828 6.43 23.241.016zm-19.042-20.911c.049-.279.262-.492.443-.705.836-.869 1.755-1.788 2.936-2.05.476-.115.968-.115 1.443-.098 1.804 0 3.592.016 5.396.016.968.017 2.05.049 2.739.738.18.18.312.443.213.672-.049.148-.213.246-.344.344-1.148.754-1.919 1.985-2.69 3.149-.984 1.509-2.05 2.969-3.329 4.215l.59-.689c-.361.164-.525.754-.902.672-.115-.049-.197-.131-.279-.213-.722-.722-1.427-1.46-2.165-2.198-.426-.426-.869-.869-1.361-1.23-.787-.558-1.771-.886-2.378-1.657-.23-.261-.394-.622-.312-.966zm7.873 9.184c-.066-.394.164-.787.459-1.05.279-.279.656-.459.984-.656 1.263-.771 2.28-1.952 2.805-3.33.213-.508.344-1.033.623-1.509.558-.918 1.575-1.443 2.542-1.853.262-.098.492-.197.754-.164.344.049.623.295.869.541.328.328.689.656.968 1.033.722 1.017 1.001 2.247 1.247 3.477.098.426.18.869.279 1.296.23 1.115.459 2.23.41 3.362-.033 1.115-.394 2.263-1.197 3.067-.804.804-2.083 1.132-3.1.64-.689-.361-1.148-1.017-1.673-1.575-.787-.853-1.722-1.525-2.772-1.985-.476.082-.951.197-1.427.312-.115.016-.23.033-.345.016-.098-.033-.164-.098-.23-.164-.164-.164-.344-.312-.508-.476-.311-.276-.639-.571-.688-.982zm2.001 4.396c.607 1.165 1.05 2.067 2.034 2.985.738.705 2.067 1.574 1.771 2.788-.246 1.033-1.525 1.328-2.575 1.46-.771.082-1.509.164-2.28.246-.508.049-1.033.115-1.574.131-.64.016-1.263-.016-1.919-.049-1.247-.065-2.559-.164-3.641-.82-.82-.525-1.443-1.673-.853-2.427.558-.754 1.706-.558 2.575-.869.574-.213 1.033-.64 1.476-1.083 1.23-1.23 3.559-5.166 4.986-2.362zm-13.892-.41c-.787-1.673.328-3.772.492-4.002.148-.246.246-.541.295-.82.279-1.001.525-2.001.787-2.985.131-.525.295-1.082.722-1.41.705-.509 1.673-.098 2.411.344 1.739 1.05 3.313 2.329 4.707 3.789l-.837-.705c.492.426.968.869 1.279 1.443.279.574.361 1.312 0 1.837-.197.295-.492.492-.787.689-.394.262-.787.525-1.23.672-.705.18-1.64.131-1.935.787-.099.23-.099.459-.18.672-.082.213-.246.377-.41.541l-2.247 2.247c-.098.098-.197.197-.328.23-.18.082-.394 0-.574-.082-1.165-.606-1.591-2.05-2.165-3.247zm14.023-2.772 1.066.082c-.18-.082-.377-.18-.574-.246-.197-.065-.541-.049-.492.164zm1.066.082c-.18-.082-.377-.18-.574-.246-.197-.065-.541-.049-.492.164zm0 0c-.18-.082-.377-.18-.574-.246-.197-.065-.541-.049-.492.164z" fill="#d15241"/><g fill="#4d5c7d"><path d="m234.112 199.929c1.848-1.848 1.848-4.844 0-6.691-1.848-1.848-4.844-1.848-6.691 0s-1.848 4.844 0 6.692 4.843 1.847 6.691-.001z"/><path d="m260.461 262.038c1.848-1.848 1.848-4.844 0-6.691-1.848-1.848-4.844-1.848-6.691 0-1.848 1.848-1.848 4.844 0 6.692 1.847 1.847 4.843 1.846 6.691-.001z"/><path d="m197.262 307.685c1.848-1.848 1.848-4.844 0-6.691-1.848-1.848-4.844-1.848-6.691 0-1.848 1.848-1.848 4.844 0 6.692s4.843 1.847 6.691-.001z"/><path d="m170.546 226.809c1.848-1.848 1.848-4.844 0-6.691-1.848-1.848-4.844-1.848-6.691 0-1.848 1.848-1.848 4.844 0 6.692 1.847 1.847 4.843 1.847 6.691-.001z"/><path d="m315.456 178.412c1.848-1.848 1.848-4.844 0-6.691-1.848-1.848-4.844-1.848-6.691 0s-1.848 4.844 0 6.692c1.847 1.847 4.843 1.847 6.691-.001z"/><path d="m144.834 134.613c1.848-1.848 1.848-4.844 0-6.691-1.848-1.848-4.844-1.848-6.691 0-1.848 1.848-1.848 4.844 0 6.692 1.847 1.847 4.843 1.847 6.691-.001z"/></g><g fill="#f0a67a"><path d="m183.353 282.788 6.891-6.891-23.837-26.298z"/><path d="m232.963 282.844 1.576-20.734-15.95 21.95z"/><path d="m252.41 168.248-21.357-27.665 11.704 37.317z"/><path d="m183.24 191.508-31.779-16.065 34.327 26.47z"/></g><g fill="#44c4a1"><path d="m201.101 282.329c.458-.185.813-.594 1.294-.709.961-.229 1.986.805 2.869.362.211-.106.375-.284.534-.459.361-.396.723-.792 1.084-1.189.562-.617 1.159-1.316 1.161-2.151.002-.654-.366-1.245-.537-1.876-.398-1.467.243-3.21-.633-4.451-.387-.548-1.003-.879-1.596-1.191-.678-.357-1.374-.72-2.134-.819-.946-.124-1.941.197-2.637.85l1.553-1.517c-1.705.49-2.875 2.013-3.922 3.445-.45.616-.914 1.266-1.016 2.021-.135 1.004.39 1.962.655 2.94.291 1.074.275 2.23.709 3.255.433 1.028 1.584 1.906 2.616 1.489z"/><path d="m144.843 202.158c.458-.185.813-.594 1.294-.709.961-.229 1.985.805 2.869.362.211-.106.375-.284.534-.459.361-.396.723-.792 1.084-1.188.562-.617 1.159-1.317 1.161-2.152.002-.654-.366-1.245-.537-1.876-.398-1.467.243-3.21-.633-4.451-.387-.548-1.003-.879-1.596-1.191-.678-.357-1.374-.72-2.134-.819-.946-.124-1.941.197-2.637.85l1.553-1.517c-1.705.49-2.875 2.013-3.922 3.445-.45.616-.914 1.266-1.016 2.021-.135 1.004.39 1.962.655 2.94.291 1.074.275 2.23.709 3.255.434 1.028 1.584 1.906 2.616 1.489z"/><path d="m160.475 132.003c.458-.185.813-.594 1.294-.709.961-.229 1.986.805 2.869.362.211-.106.375-.284.534-.459.361-.396.723-.792 1.084-1.189.562-.617 1.159-1.316 1.161-2.151.002-.654-.366-1.245-.537-1.876-.398-1.467.243-3.21-.633-4.451-.387-.548-1.003-.879-1.596-1.191-.678-.357-1.374-.72-2.134-.819-.946-.124-1.941.197-2.637.85l1.553-1.517c-1.705.49-2.875 2.013-3.922 3.445-.45.616-.914 1.266-1.016 2.021-.135 1.004.39 1.962.655 2.94.291 1.074.275 2.23.709 3.255.433 1.028 1.584 1.905 2.616 1.489z"/><path d="m243.447 233.968c.458-.185.813-.594 1.294-.709.961-.229 1.986.805 2.869.362.211-.106.375-.284.534-.459.361-.396.723-.792 1.084-1.188.562-.617 1.159-1.317 1.161-2.152.002-.654-.366-1.245-.537-1.876-.398-1.467.243-3.21-.633-4.451-.387-.548-1.003-.879-1.596-1.191-.678-.357-1.374-.72-2.134-.819-.946-.123-1.941.197-2.637.85l1.553-1.517c-1.705.49-2.875 2.013-3.922 3.445-.45.616-.914 1.266-1.016 2.021-.135 1.004.39 1.962.655 2.94.291 1.074.275 2.23.709 3.255.433 1.028 1.584 1.906 2.616 1.489z"/><path d="m197.47 201.375c.458-.185.813-.594 1.294-.709.961-.229 1.986.805 2.869.362.211-.106.375-.284.534-.459.361-.396.723-.792 1.084-1.189.562-.617 1.159-1.316 1.161-2.152.002-.654-.366-1.245-.537-1.876-.398-1.467.243-3.21-.633-4.451-.387-.548-1.003-.879-1.596-1.191-.678-.357-1.374-.72-2.134-.819-.946-.124-1.941.197-2.637.85l1.553-1.517c-1.705.49-2.875 2.013-3.922 3.445-.45.616-.914 1.266-1.016 2.021-.135 1.004.39 1.962.655 2.94.291 1.074.275 2.23.709 3.255.434 1.029 1.584 1.907 2.616 1.49z"/><path d="m271.41 167.195c.458-.185.813-.594 1.294-.709.961-.229 1.986.805 2.869.362.211-.106.375-.284.534-.459.361-.396.723-.792 1.084-1.188.562-.617 1.159-1.316 1.161-2.152.002-.654-.366-1.245-.537-1.876-.398-1.467.243-3.21-.633-4.451-.387-.548-1.003-.879-1.596-1.191-.678-.357-1.374-.72-2.134-.819-.946-.124-1.941.197-2.637.85l1.553-1.517c-1.705.49-2.875 2.013-3.922 3.445-.45.616-.914 1.266-1.016 2.021-.135 1.004.39 1.962.655 2.94.291 1.074.275 2.23.709 3.255.434 1.027 1.584 1.905 2.616 1.489z"/></g><path d="m222.613 445.336c-59.557 0-115.488-23.131-157.487-65.13-41.999-41.995-65.126-97.925-65.126-157.487 0-59.557 23.127-115.488 65.126-157.487 42.067-42.067 97.997-65.232 157.491-65.232 59.489 0 115.415 23.165 157.483 65.232 42.067 42.063 65.237 97.994 65.237 157.487s-23.17 115.424-65.237 157.487c-41.995 41.999-97.926 65.13-157.487 65.13zm-139.182-71.308 3.499 3.076c37.429 32.936 85.641 51.079 135.743 51.079 54.953 0 106.557-21.343 145.305-60.095 38.829-38.829 60.214-90.454 60.214-145.369 0-50.038-18.181-98.224-51.199-135.692l-3.076-3.49zm139.186-356.888c-54.911 0-106.536 21.386-145.369 60.214-76.459 76.459-80.418 199.909-9.016 281.053l3.076 3.499 290.487-290.487-3.49-3.076c-37.464-33.017-85.655-51.203-135.688-51.203z" fill="#e56353"/></g></svg>